<svg width="86" height="144" viewBox="0 0 86 144" fill="none" xmlns="http://www.w3.org/2000/svg">
<rect width="86" height="144" fill="#E1E1E1"/>
<g clip-path="url(#clip0_127_12046)">
<rect width="375" height="1065" transform="translate(-153 -206)" fill="white"/>
<path d="M20.3707 142.468H-35.1219V142.616H20.3707V142.468Z" fill="#EBEBEB"/>
<path d="M27.3901 108.52H-86.9893C-87.8853 108.519 -88.7441 108.162 -89.3772 107.528C-90.0102 106.893 -90.3658 106.034 -90.3658 105.138V-55.6472C-90.358 -56.5381 -89.999 -57.39 -89.3668 -58.0177C-88.7346 -58.6455 -87.8802 -58.9985 -86.9893 -59H27.3901C28.2872 -59 29.1475 -58.6436 29.7818 -58.0093C30.4162 -57.375 30.7725 -56.5147 30.7725 -55.6176V105.138C30.7725 106.035 30.4162 106.895 29.7818 107.53C29.1475 108.164 28.2872 108.52 27.3901 108.52ZM-86.9893 -58.8815C-87.846 -58.88 -88.6672 -58.5385 -89.2725 -57.9321C-89.8777 -57.3258 -90.2177 -56.504 -90.2177 -55.6472V105.138C-90.2177 105.995 -89.8777 106.816 -89.2725 107.423C-88.6672 108.029 -87.846 108.371 -86.9893 108.372H27.3901C28.2474 108.371 29.0692 108.029 29.6754 107.423C30.2816 106.817 30.6229 105.995 30.6244 105.138V-55.6472C30.6229 -56.5045 30.2816 -57.3263 29.6754 -57.9325C29.0692 -58.5387 28.2474 -58.88 27.3901 -58.8815H-86.9893Z" fill="#EBEBEB"/>
<path d="M155.524 108.52H41.1389C40.2423 108.519 39.3829 108.162 38.7489 107.528C38.1149 106.894 37.758 106.035 37.7565 105.138V-55.6472C37.7658 -56.5387 38.1261 -57.3905 38.7593 -58.0181C39.3924 -58.6457 40.2474 -58.9985 41.1389 -59H155.524C156.414 -58.9969 157.267 -58.6432 157.898 -58.0157C158.529 -57.3881 158.887 -56.5371 158.895 -55.6472V105.138C158.895 106.033 158.54 106.891 157.908 107.525C157.276 108.159 156.419 108.517 155.524 108.52ZM41.1389 -58.8815C40.2815 -58.88 39.4598 -58.5387 38.8536 -57.9325C38.2474 -57.3263 37.9061 -56.5045 37.9046 -55.6472V105.138C37.9061 105.995 38.2474 106.817 38.8536 107.423C39.4598 108.029 40.2815 108.371 41.1389 108.372H155.524C156.382 108.371 157.203 108.029 157.809 107.423C158.416 106.817 158.757 105.995 158.758 105.138V-55.6472C158.757 -56.5045 158.416 -57.3263 157.809 -57.9325C157.203 -58.5387 156.382 -58.88 155.524 -58.8815H41.1389Z" fill="#EBEBEB"/>
<path d="M183.182 134.94H-113V135.088H183.182V134.94Z" fill="#EBEBEB"/>
<path d="M35.4403 125.195C76.0891 125.195 109.041 92.2428 109.041 51.594C109.041 10.9453 76.0891 -22.0071 35.4403 -22.0071C-5.20849 -22.0071 -38.1608 10.9453 -38.1608 51.594C-38.1608 92.2428 -5.20849 125.195 35.4403 125.195Z" fill="#F0F0F0"/>
<path d="M35.6477 126.836C15.6883 126.836 -3.45354 118.907 -17.5669 104.794C-31.6803 90.6806 -39.6091 71.5387 -39.6091 51.5794C-39.6091 31.6201 -31.6803 12.4782 -17.5669 -1.63517C-3.45354 -15.7485 15.6883 -23.6774 35.6477 -23.6774V-20.3661C16.6796 -20.1939 -1.45304 -12.5382 -14.805 0.935524C-28.157 14.4092 -35.648 32.6106 -35.648 51.5794C-35.648 70.5482 -28.157 88.7496 -14.805 102.223C-1.45304 115.697 16.6796 123.353 35.6477 123.525V126.836Z" fill="white"/>
<path d="M35.6478 126.836V123.525C45.1507 123.611 54.5766 121.814 63.3811 118.237C72.1856 114.66 80.1942 109.374 86.9445 102.685C93.6948 95.9956 99.053 88.0352 102.71 79.2636C106.366 70.4919 108.249 61.0827 108.249 51.5794C108.249 42.0761 106.366 32.6669 102.71 23.8952C99.053 15.1236 93.6948 7.16322 86.9445 0.473898C80.1942 -6.21542 72.1856 -11.5012 63.3811 -15.0781C54.5766 -18.655 45.1507 -20.4523 35.6478 -20.3661V-23.6774C55.6071 -23.6774 74.749 -15.7485 88.8623 -1.63517C102.976 12.4782 110.905 31.6201 110.905 51.5794C110.905 71.5387 102.976 90.6806 88.8623 104.794C74.749 118.907 55.6071 126.836 35.6478 126.836Z" fill="white"/>
<path d="M74.1097 51.5941H70.7925C70.7925 27.2065 58.418 -5.43267 34.759 -20.609L36.5361 -23.399C61.2021 -7.57703 74.1097 26.3002 74.1097 51.5941Z" fill="white"/>
<path d="M36.542 124.342L34.7649 121.558C58.4239 106.376 70.7984 73.7425 70.7984 49.349H74.1156C74.1097 74.6429 61.2021 108.526 36.542 124.342Z" fill="white"/>
<path d="M0.508613 51.5822H-2.82047C-2.82047 26.2883 10.0812 -7.58893 34.7354 -23.4169L36.5124 -20.6268C12.889 -5.44457 0.508613 27.1887 0.508613 51.5822Z" fill="white"/>
<path d="M34.7532 124.33C10.0991 108.502 -2.80261 74.6251 -2.80261 49.3372H0.508696C0.508696 73.7247 12.8891 106.358 36.5481 121.54L34.7532 124.33Z" fill="white"/>
<path d="M37.3063 -22.0189H33.995V125.183H37.3063V-22.0189Z" fill="white"/>
<path d="M97.9525 10.7212H-26.6452V14.0325H97.9525V10.7212Z" fill="white"/>
<path d="M109.219 51.1793H-37.918V54.4906H109.219V51.1793Z" fill="white"/>
<path d="M96.3056 91.6024H-24.9985V94.9137H96.3056V91.6024Z" fill="white"/>
<path d="M-4.27769 60.0651C-4.4478 60.2031 -4.65285 60.2913 -4.87006 60.3198L4.98687 71.1363L5.47261 70.7276L-4.27769 60.0651Z" fill="#407BFF"/>
<path d="M40.2977 4.21694L40.5109 1.75863C40.4261 1.76502 40.341 1.76502 40.2562 1.75863C40.1425 1.75722 40.0292 1.74332 39.9185 1.71716L39.7112 4.08662C39.9136 4.08937 40.1132 4.13373 40.2977 4.21694Z" fill="#407BFF"/>
<path d="M38.8997 20.1812L40.0845 6.79968C39.9605 6.83109 39.8332 6.84701 39.7054 6.84707C39.6284 6.84707 39.5573 6.84707 39.4862 6.84707L38.3429 19.8791C38.551 19.9313 38.7425 20.0352 38.8997 20.1812Z" fill="#407BFF"/>
<path d="M37.4602 30.5476C37.6453 30.5461 37.8287 30.5824 37.9993 30.6542L38.722 22.4263C38.5414 22.5318 38.3384 22.5927 38.1296 22.604L37.4306 30.5535L37.4602 30.5476Z" fill="#407BFF"/>
<path d="M37.4604 33.3139C37.3648 33.3134 37.2696 33.3035 37.176 33.2842L34.386 65.2008L34.9783 65.2541L37.7802 33.2665C37.6759 33.2951 37.5685 33.3111 37.4604 33.3139Z" fill="#407BFF"/>
<path opacity="0.4" d="M118.614 26.0043C107.566 19.98 85.3883 21.9525 85.2402 21.9644L74.7554 23.3801L90.2398 22.0888C90.3701 22.0769 108.727 20.673 118.614 26.0043Z" fill="black"/>
<path d="M124.656 33.9063C124.633 33.6794 124.597 33.454 124.549 33.231C124.549 33.1481 124.514 33.0652 124.496 32.9822C124.478 32.8993 124.437 32.7038 124.401 32.5676L124.33 32.3306C124.289 32.1944 124.247 32.0582 124.2 31.9278C124.153 31.7975 124.147 31.7916 124.123 31.7264C124.099 31.6613 124.01 31.4421 123.951 31.3059L123.874 31.1459C123.803 30.9919 123.732 30.8438 123.655 30.6957C123.63 30.6603 123.608 30.6226 123.59 30.5832C123.501 30.4232 123.406 30.2633 123.305 30.1093C123.291 30.0865 123.275 30.0647 123.258 30.0441C123.146 29.8723 123.033 29.7006 122.909 29.5406C121.887 28.2467 120.624 27.1642 119.189 26.3537L118.821 26.1404L118.614 26.0279C108.745 20.6966 90.3878 22.1005 90.2397 22.1124L74.7554 23.4037C74.7526 23.4353 74.7526 23.467 74.7554 23.4985L68.8791 24.0909V30.9801C68.8791 31.6747 69.0159 32.3626 69.2818 33.0044C69.5476 33.6462 69.9373 34.2293 70.4285 34.7205C70.9197 35.2117 71.5028 35.6014 72.1446 35.8672C72.7864 36.133 73.4743 36.2699 74.1689 36.2699H125.266L124.656 33.9063Z" fill="#407BFF"/>
<path opacity="0.4" d="M124.656 33.9063C124.633 33.6794 124.597 33.454 124.549 33.231C124.549 33.1481 124.514 33.0652 124.496 32.9822C124.478 32.8993 124.437 32.7038 124.401 32.5676L124.33 32.3306C124.289 32.1944 124.247 32.0582 124.2 31.9278C124.153 31.7975 124.147 31.7916 124.123 31.7264C124.099 31.6613 124.01 31.4421 123.951 31.3059L123.874 31.1459C123.803 30.9919 123.732 30.8438 123.655 30.6957C123.63 30.6603 123.608 30.6226 123.59 30.5832C123.501 30.4232 123.406 30.2633 123.305 30.1093C123.291 30.0865 123.275 30.0647 123.258 30.0441C123.146 29.8723 123.033 29.7006 122.909 29.5406C121.887 28.2467 120.624 27.1642 119.189 26.3537L118.821 26.1404L118.614 26.0279C108.745 20.6966 90.3878 22.1005 90.2397 22.1124L74.7554 23.4037C74.7526 23.4353 74.7526 23.467 74.7554 23.4985L68.8791 24.0909V30.9801C68.8791 31.6747 69.0159 32.3626 69.2818 33.0044C69.5476 33.6462 69.9373 34.2293 70.4285 34.7205C70.9197 35.2117 71.5028 35.6014 72.1446 35.8672C72.7864 36.133 73.4743 36.2699 74.1689 36.2699H125.266L124.656 33.9063Z" fill="black"/>
<path d="M118.513 19.5712L83.6112 18.7655L86.0576 -3.31775L120.954 -2.51213L118.513 19.5712Z" fill="#407BFF"/>
<path d="M118.022 21.2891L83.6291 20.4954C83.4052 20.4945 83.1839 20.4462 82.98 20.3537C82.776 20.2613 82.5939 20.1267 82.4457 19.9589C82.2974 19.791 82.1864 19.5937 82.1198 19.3799C82.0532 19.1661 82.0326 18.9406 82.0593 18.7183L84.488 -3.19914C84.5462 -3.67708 84.7782 -4.1169 85.1398 -4.4348C85.5014 -4.7527 85.9673 -4.92645 86.4487 -4.92292L120.841 -4.12915C121.065 -4.12824 121.286 -4.07998 121.49 -3.98751C121.694 -3.89504 121.876 -3.76047 122.025 -3.59263C122.173 -3.4248 122.284 -3.22749 122.351 -3.01369C122.417 -2.79988 122.438 -2.57439 122.411 -2.35206L119.982 19.5654C119.924 20.0433 119.692 20.4831 119.331 20.801C118.969 21.1189 118.503 21.2927 118.022 21.2891Z" fill="#407BFF"/>
<g opacity="0.5">
<path opacity="0.5" d="M118.513 19.5715L83.6112 18.7659L86.0576 -3.31738L120.954 -2.51177L118.513 19.5715Z" fill="black"/>
<path opacity="0.9" d="M118.513 19.5715L83.6112 18.7659L86.0576 -3.31738L120.954 -2.51177L118.513 19.5715Z" fill="black"/>
</g>
<path opacity="0.9" d="M118.436 19.6542L83.5342 18.8486L85.9806 -3.22876L120.877 -2.42315L118.436 19.6542Z" fill="white"/>
<path d="M89.9258 -10.7639C89.9368 -12.1764 89.4768 -13.5524 88.6187 -14.6744C87.7605 -15.7964 86.553 -16.6006 85.1869 -16.96C84.3991 -17.1673 83.7001 -17.3332 83.2736 -17.4102C79.9002 -17.8867 76.5024 -18.1715 73.0968 -18.2632C71.6396 -18.3106 70.135 -18.2987 68.8732 -18.2276V25.2222C73.3268 26.0471 77.9108 25.8302 82.2666 24.5884L90.1805 22.3078C89.8133 13.8607 89.8725 -2.57742 89.9258 -10.7639Z" fill="#407BFF"/>
<path d="M89.9258 -10.7639C89.9368 -12.1764 89.4768 -13.5524 88.6187 -14.6744C87.7605 -15.7964 86.553 -16.6006 85.1869 -16.96C84.3991 -17.1673 83.7001 -17.3332 83.2736 -17.4102C79.9002 -17.8867 76.5024 -18.1715 73.0968 -18.2632C71.6396 -18.3106 70.135 -18.2987 68.8732 -18.2276V25.2222C73.3268 26.0471 77.9108 25.8302 82.2666 24.5884L90.1805 22.3078C89.8133 13.8607 89.8725 -2.57742 89.9258 -10.7639Z" fill="#407BFF"/>
<path opacity="0.7" d="M89.9258 -10.7639C89.9368 -12.1764 89.4768 -13.5524 88.6187 -14.6744C87.7605 -15.7964 86.553 -16.6006 85.1869 -16.96C84.3991 -17.1673 83.7001 -17.3332 83.2736 -17.4102C79.9002 -17.8867 76.5024 -18.1715 73.0968 -18.2632C71.6396 -18.3106 70.135 -18.2987 68.8732 -18.2276V25.2222C73.3268 26.0471 77.9108 25.8302 82.2666 24.5884L90.1805 22.3078C89.8133 13.8607 89.8725 -2.57742 89.9258 -10.7639Z" fill="white"/>
<path opacity="0.2" d="M77.7824 -11.1428C77.4862 -8.05655 77.0182 -1.41023 78.6768 4.1639L81.9526 4.21129C84.2242 4.27061 86.4883 3.92768 88.6404 3.19835C88.6404 3.19835 90.3286 -5.18359 87.7874 -10.2305C85.6193 -14.5429 78.2385 -15.9468 77.7824 -11.1428Z" fill="black"/>
<path d="M85.3823 -15.5914C85.8029 -11.7766 86.2768 -7.89071 86.8099 -4.06404C87.0765 -2.14478 87.3608 -0.237373 87.6866 1.64634C88.0124 3.53006 88.3619 5.40192 88.8003 7.19678C89.0195 8.09717 89.2505 8.97387 89.517 9.80317C89.6474 10.2238 89.7895 10.6088 89.9317 10.9879C90.0087 11.1597 90.0798 11.367 90.1509 11.5033L90.2575 11.7284L90.293 11.8113C90.2584 11.7546 90.2187 11.701 90.1746 11.6514C90.0502 11.5092 90.0028 11.5388 90.0383 11.5507C90.1202 11.6309 90.2117 11.7005 90.3108 11.758C90.612 11.9367 90.927 12.0912 91.2527 12.22C92.0651 12.529 92.8937 12.794 93.7347 13.0138C97.2888 13.9497 101.625 15.7446 105.428 16.4258L105.298 19.8023C101.228 20.134 92.6388 19.0381 89.4223 17.7764C88.8144 17.614 88.2202 17.404 87.6452 17.1485C87.2885 16.9747 86.9442 16.7767 86.6145 16.5561C85.9892 16.1569 85.4593 15.625 85.0625 14.9982L84.9262 14.7553L84.6834 14.3229C84.5175 14.0327 84.4109 13.7839 84.2746 13.5054C84.0318 12.9664 83.8067 12.4451 83.6171 11.9298C83.238 10.8991 82.924 9.89796 82.616 8.88502C81.5381 4.96134 80.6916 0.977753 80.0807 -3.04517C79.7667 -5.02367 79.4883 -6.99031 79.2455 -8.96881V-9.03397C79.1493 -9.80152 79.2084 -10.5806 79.4194 -11.3248C79.6303 -12.0691 79.9888 -12.7633 80.4734 -13.3662C80.9581 -13.9691 81.559 -14.4684 82.2405 -14.8344C82.922 -15.2004 83.6702 -15.4256 84.4405 -15.4967L85.3823 -15.5914Z" fill="#7F3E3B"/>
<path d="M78.043 -12.9496C77.3085 -10.0351 78.5465 -1.37478 80.2348 2.64144L90.5478 1.11907C90.5478 1.11907 91.3001 -10.7282 88.8062 -14.0395C84.8078 -19.3471 79.1389 -17.4456 78.043 -12.9496Z" fill="#407BFF"/>
<path opacity="0.3" d="M78.043 -12.9496C77.3085 -10.0351 78.5465 -1.37478 80.2348 2.64144L90.5478 1.11907C90.5478 1.11907 91.3001 -10.7282 88.8062 -14.0395C84.8078 -19.3471 79.1389 -17.4456 78.043 -12.9496Z" fill="white"/>
<path d="M131.451 -31.917H74.1453C71.2239 -31.917 68.8555 -29.5487 68.8555 -26.6272V30.678C68.8555 33.5995 71.2239 35.9678 74.1453 35.9678H131.451C134.372 35.9678 136.74 33.5995 136.74 30.678V-26.6272C136.74 -29.5487 134.372 -31.917 131.451 -31.917Z" stroke="#407BFF" stroke-miterlimit="10"/>
<path d="M84.6361 49.9948L65.3487 65.3014L65.716 65.7635L84.9915 50.4686C84.8348 50.3433 84.7125 50.1803 84.6361 49.9948Z" fill="#407BFF"/>
<path d="M81.4374 81.8046L70.1292 86.9048L70.3721 87.4439L81.5736 82.391C81.4902 82.2063 81.4439 82.0071 81.4374 81.8046Z" fill="#407BFF"/>
<path d="M90.2695 77.8358L83.7535 80.7976C83.8928 80.9437 83.9962 81.1201 84.0557 81.313L90.6368 78.3512C90.4739 78.2122 90.3478 78.0352 90.2695 77.8358Z" fill="#407BFF"/>
<path d="M75.1464 86.9047H74.7791C74.7822 76.8473 71.1178 67.1339 64.4726 59.5846C57.8274 52.0353 48.6574 47.1682 38.6809 45.8952C28.7044 44.6223 18.6061 47.0309 10.2781 52.6697C1.9502 58.3085 -4.03582 66.7906 -6.55825 76.5265C-15.2127 77.1144 -23.3008 81.0393 -29.1178 87.4742C-34.9348 93.909 -38.0262 102.351 -37.7405 111.021C-37.4547 119.69 -33.8141 127.91 -27.5861 133.948C-21.358 139.986 -13.029 143.37 -4.35466 143.387H75.1464C78.8895 143.441 82.606 142.75 86.0798 141.355C89.5537 139.96 92.7156 137.889 95.3817 135.261C98.0479 132.633 100.165 129.502 101.61 126.048C103.055 122.595 103.799 118.889 103.799 115.146C103.799 111.402 103.055 107.696 101.61 104.243C100.165 100.789 98.0479 97.6579 95.3817 95.0301C92.7156 92.4023 89.5537 90.3307 86.0798 88.9358C82.606 87.5409 78.8895 86.8505 75.1464 86.9047Z" fill="#407BFF"/>
<path opacity="0.3" d="M75.1464 86.9047H74.7791C74.7822 76.8473 71.1178 67.1339 64.4726 59.5846C57.8274 52.0353 48.6574 47.1682 38.6809 45.8952C28.7044 44.6223 18.6061 47.0309 10.2781 52.6697C1.9502 58.3085 -4.03582 66.7906 -6.55825 76.5265C-15.2127 77.1144 -23.3008 81.0393 -29.1178 87.4742C-34.9348 93.909 -38.0262 102.351 -37.7405 111.021C-37.4547 119.69 -33.8141 127.91 -27.5861 133.948C-21.358 139.986 -13.029 143.37 -4.35466 143.387H75.1464C78.8895 143.441 82.606 142.75 86.0798 141.355C89.5537 139.96 92.7156 137.889 95.3817 135.261C98.0479 132.633 100.165 129.502 101.61 126.048C103.055 122.595 103.799 118.889 103.799 115.146C103.799 111.402 103.055 107.696 101.61 104.243C100.165 100.789 98.0479 97.6579 95.3817 95.0301C92.7156 92.4023 89.5537 90.3307 86.0798 88.9358C82.606 87.5409 78.8895 86.8505 75.1464 86.9047Z" fill="white"/>
<path d="M39.5928 116.001C39.0478 120.432 31.199 123.945 31.199 123.945C31.199 123.945 23.3502 120.432 22.8052 116.001L22.6512 102.715L31.0391 99.9542L39.7468 102.715L39.5928 116.001Z" fill="#F5F5F5"/>
<path d="M34.4983 108.342V111.215C34.4983 111.339 34.449 111.458 34.3613 111.546C34.2735 111.634 34.1545 111.683 34.0304 111.683C33.9062 111.683 33.7872 111.634 33.6995 111.546C33.6117 111.458 33.5624 111.339 33.5624 111.215V108.342C33.5608 107.897 33.3829 107.471 33.0676 107.157C32.7522 106.842 32.3252 106.666 31.8801 106.666H30.8553C30.6344 106.665 30.4155 106.708 30.211 106.792C30.0066 106.876 29.8207 106.999 29.664 107.154C29.5072 107.31 29.3826 107.495 29.2974 107.699C29.2121 107.903 29.1678 108.121 29.1671 108.342V111.304H28.2193V108.342C28.2208 107.648 28.4972 106.983 28.9879 106.493C29.4785 106.002 30.1436 105.726 30.8375 105.724H31.8623C32.2074 105.722 32.5494 105.789 32.8688 105.92C33.1882 106.051 33.4786 106.243 33.7234 106.486C33.9683 106.73 34.1628 107.019 34.2957 107.337C34.4287 107.656 34.4975 107.997 34.4983 108.342Z" fill="#407BFF"/>
<path d="M34.7886 111.109V116.701C34.7886 116.87 34.7212 117.033 34.6013 117.153C34.4813 117.273 34.3186 117.34 34.1489 117.34H28.5748C28.4056 117.339 28.2437 117.271 28.1241 117.151C28.0044 117.032 27.9365 116.87 27.935 116.701V111.109C27.9353 111 27.9631 110.893 28.016 110.797C28.0688 110.702 28.1449 110.622 28.2371 110.564C28.339 110.502 28.4557 110.469 28.5748 110.469H34.1667C34.283 110.47 34.3973 110.5 34.4984 110.558C34.5889 110.618 34.6629 110.7 34.7136 110.796C34.7643 110.893 34.7901 111 34.7886 111.109Z" fill="#407BFF"/>
<g opacity="0.3">
<path opacity="0.3" d="M34.4985 108.342V111.215C34.4985 111.339 34.4492 111.458 34.3614 111.546C34.2737 111.634 34.1547 111.683 34.0305 111.683C33.9064 111.683 33.7874 111.634 33.6996 111.546C33.6119 111.458 33.5626 111.339 33.5626 111.215V108.342C33.561 107.897 33.3831 107.471 33.0677 107.157C32.7524 106.842 32.3254 106.666 31.8803 106.666H30.8555C30.6346 106.665 30.4156 106.708 30.2112 106.792C30.0068 106.876 29.8209 106.999 29.6642 107.154C29.5074 107.31 29.3828 107.495 29.2976 107.699C29.2123 107.903 29.168 108.121 29.1672 108.342V111.304H28.2195V108.342C28.221 107.648 28.4974 106.983 28.9881 106.493C29.4787 106.002 30.1438 105.726 30.8377 105.724H31.8625C32.2076 105.722 32.5496 105.789 32.869 105.92C33.1883 106.051 33.4788 106.243 33.7236 106.486C33.9685 106.73 34.163 107.019 34.2959 107.337C34.4289 107.656 34.4977 107.997 34.4985 108.342Z" fill="white"/>
<path opacity="0.3" d="M34.7886 111.109V116.701C34.7886 116.87 34.7212 117.033 34.6013 117.153C34.4813 117.273 34.3186 117.34 34.1489 117.34H28.5748C28.4056 117.339 28.2437 117.271 28.1241 117.151C28.0044 117.032 27.9365 116.87 27.935 116.701V111.109C27.9353 111 27.9631 110.893 28.016 110.797C28.0688 110.702 28.1449 110.622 28.2371 110.564C28.339 110.502 28.4557 110.469 28.5748 110.469H34.1667C34.283 110.47 34.3973 110.5 34.4984 110.558C34.5889 110.618 34.6629 110.7 34.7136 110.796C34.7643 110.893 34.7901 111 34.7886 111.109Z" fill="white"/>
</g>
<path opacity="0.2" d="M9.82663 82.6693C9.82663 82.6693 6.14212 85.3705 9.11578 92.5381C13.1202 102.194 45.475 93.8946 45.475 93.8946C44.3436 100.257 46.0674 105.037 47.2047 111.393L50.2554 128.127L47.033 128.483L48.3361 133.168H51.4757L51.8074 137.113C51.6262 137.127 51.4495 137.176 51.2881 137.26C51.1267 137.343 50.9838 137.458 50.8681 137.598C50.7524 137.738 50.6663 137.9 50.6149 138.075C50.5636 138.249 50.5481 138.432 50.5694 138.612L51.2802 142.297L51.9555 143.055L66.267 140.845L56.2501 137.107L52.9447 84.6656L9.82663 82.6693Z" fill="black"/>
<path opacity="0.2" d="M59.6205 89.1561H62.5823C62.5823 89.1561 61.6878 91.1642 62.8192 100.044C63.9506 108.923 67.6885 120.285 67.6885 120.285H65.0169L65.7337 125.178H68.3401V129.324C68.0098 129.367 67.7054 129.526 67.4809 129.772C67.2565 130.018 67.1264 130.336 67.1139 130.669L67.0191 133.346L68.9028 134.531L80.4776 133.607L81.8992 132.695L75.4899 129.68L71.1597 83.7596L57.1325 84.82L59.6205 89.1561Z" fill="black"/>
<path d="M71.2547 130.39L76.3253 129.84L76.7992 117.927L71.7286 118.484L71.2547 130.39Z" fill="#FF8B7B"/>
<path d="M76.8347 127.701L71.1125 127.648C71.065 127.642 71.0168 127.646 70.9707 127.659C70.9247 127.672 70.8817 127.694 70.8442 127.724C70.8067 127.753 70.7755 127.79 70.7524 127.832C70.7293 127.874 70.7148 127.92 70.7097 127.968V128.003L70.3839 132.529C70.3837 132.767 70.4764 132.996 70.6422 133.168C70.8081 133.339 71.0341 133.439 71.2724 133.447C73.2627 133.447 74.098 133.329 76.6037 133.175C78.1497 133.08 81.8461 132.831 83.949 132.434C86.0519 132.037 85.5958 129.97 84.6717 129.946C82.474 129.911 79.1153 129.188 77.6877 128.039C77.4463 127.839 77.1476 127.721 76.8347 127.701Z" fill="#263238"/>
<path opacity="0.2" d="M71.7285 118.49L76.7991 117.927L76.5681 123.667L71.5034 124.052L71.7285 118.49Z" fill="black"/>
<path d="M35.5293 67.9731C35.5293 67.9731 74.1692 66.0242 76.74 80.4127C78.0114 93.9416 78.2708 107.546 77.516 121.114L70.5972 120.551C70.5972 120.551 64.7565 97.5616 65.3193 85.2878C54.6567 84.1327 25.6902 89.3218 21.1645 81.396C17.4623 74.9333 18.1494 70.9053 18.1494 70.9053L35.5293 67.9731Z" fill="#407BFF"/>
<path opacity="0.5" d="M35.5293 67.9731C35.5293 67.9731 74.1692 66.0242 76.74 80.4127C78.0114 93.9416 78.2708 107.546 77.516 121.114L70.5972 120.551C70.5972 120.551 64.7565 97.5616 65.3193 85.2878C54.6567 84.1327 25.6902 89.3218 21.1645 81.396C17.4623 74.9333 18.1494 70.9053 18.1494 70.9053L35.5293 67.9731Z" fill="black"/>
<path d="M68.0796 122.79L78.9495 122.269L79.69 118.194L67.6531 118.62L68.0796 122.79Z" fill="#407BFF"/>
<path d="M79.5952 128.347C79.6743 128.263 79.7301 128.16 79.7571 128.047C79.7841 127.935 79.7814 127.818 79.7492 127.707C79.7354 127.633 79.7032 127.563 79.6556 127.504C79.6081 127.445 79.5466 127.399 79.4767 127.369C78.8429 127.109 77.4034 128.092 77.2375 128.199C77.2122 128.217 77.1952 128.245 77.1902 128.276C77.1866 128.29 77.186 128.305 77.1882 128.32C77.1905 128.334 77.1956 128.348 77.2033 128.361C77.211 128.374 77.2212 128.385 77.2331 128.394C77.2451 128.402 77.2587 128.409 77.2731 128.412C77.7164 128.529 78.1714 128.597 78.6296 128.613C78.9732 128.646 79.3168 128.551 79.5952 128.347ZM79.3938 127.583C79.4286 127.598 79.4584 127.622 79.4794 127.654C79.5004 127.686 79.5118 127.723 79.5122 127.76C79.5374 127.832 79.543 127.908 79.5284 127.982C79.5138 128.056 79.4796 128.125 79.4293 128.181C79.1864 128.412 78.5171 128.442 77.6048 128.246C78.1972 127.879 79.0502 127.458 79.3938 127.595V127.583Z" fill="#407BFF"/>
<path d="M77.3797 128.388C77.8891 128.086 78.6651 127.038 78.5644 126.475C78.5445 126.377 78.4921 126.289 78.4158 126.224C78.3395 126.16 78.2437 126.123 78.1438 126.119C78.0486 126.103 77.9508 126.11 77.8589 126.14C77.767 126.17 77.6838 126.222 77.6166 126.291C77.1013 126.783 77.2019 128.246 77.2019 128.305C77.2034 128.326 77.2102 128.346 77.2216 128.364C77.233 128.382 77.2487 128.396 77.2671 128.406H77.3204L77.3797 128.388ZM78.0609 126.35C78.2327 126.35 78.2741 126.457 78.286 126.522C78.363 126.89 77.8476 127.707 77.4034 128.056C77.4034 127.577 77.4389 126.736 77.7528 126.445C77.7852 126.411 77.8248 126.384 77.8689 126.366C77.9129 126.349 77.9603 126.341 78.0076 126.345C78.0372 126.356 78.055 126.362 78.0609 126.35Z" fill="#407BFF"/>
<path d="M56.0132 137.203L60.9476 137.072L60.5566 125.112L55.6281 125.249L56.0132 137.203Z" fill="#FF8B7B"/>
<path d="M61.0245 135.597L55.3142 135.97C55.2662 135.97 55.2187 135.98 55.1745 135.998C55.1303 136.017 55.0902 136.044 55.0565 136.078C55.0229 136.112 54.9964 136.153 54.9786 136.197C54.9608 136.242 54.952 136.29 54.9528 136.337V140.875C54.9596 140.993 54.9897 141.109 55.0413 141.216C55.093 141.322 55.1652 141.418 55.2538 141.497C55.3424 141.575 55.4457 141.636 55.5577 141.674C55.6697 141.713 55.7882 141.729 55.9065 141.722C57.8909 141.533 58.8328 141.378 61.3444 141.195C62.8905 141.094 65.9411 141.029 68.0263 140.549C70.1114 140.069 69.5901 138.032 68.666 138.038C66.4743 138.073 63.4118 136.853 61.9012 135.822C61.6417 135.653 61.3336 135.574 61.0245 135.597Z" fill="#263238"/>
<path d="M63.8265 136.03C63.8986 135.939 63.9459 135.832 63.9635 135.717C63.9812 135.603 63.9687 135.486 63.9272 135.378C63.907 135.305 63.8696 135.238 63.8181 135.182C63.7665 135.127 63.7024 135.084 63.631 135.058C62.9913 134.845 61.617 135.941 61.463 136.059C61.4403 136.079 61.4255 136.107 61.4215 136.136C61.4163 136.167 61.4233 136.198 61.441 136.224C61.4588 136.249 61.4858 136.267 61.5163 136.273C61.9681 136.35 62.4267 136.379 62.8846 136.362C63.2292 136.374 63.5655 136.255 63.8265 136.03ZM63.5599 135.289C63.5953 135.302 63.627 135.323 63.6518 135.351C63.6767 135.379 63.694 135.413 63.7021 135.449C63.7309 135.519 63.7407 135.596 63.7303 135.671C63.7198 135.746 63.6897 135.816 63.6429 135.876C63.4415 136.125 62.7543 136.196 61.8361 136.077C62.3989 135.663 63.2164 135.183 63.5599 135.295V135.289Z" fill="#407BFF"/>
<path d="M61.6348 136.267C62.1205 135.929 62.8195 134.792 62.6536 134.27C62.6266 134.172 62.5665 134.086 62.4834 134.027C62.4004 133.967 62.2994 133.938 62.1975 133.945C62.1022 133.933 62.0055 133.945 61.9157 133.979C61.8259 134.013 61.7458 134.068 61.6822 134.14C61.2024 134.667 61.4156 136.125 61.4215 136.19C61.425 136.209 61.4333 136.228 61.4457 136.243C61.4581 136.259 61.4743 136.271 61.4926 136.279H61.5459C61.5761 136.284 61.607 136.279 61.6348 136.267ZM62.162 134.152C62.3338 134.152 62.3871 134.247 62.3989 134.312C62.4996 134.673 62.0494 135.497 61.6289 135.911C61.5874 135.437 61.5696 134.602 61.8599 134.288C61.889 134.251 61.9257 134.221 61.9677 134.199C62.0096 134.178 62.0557 134.166 62.1028 134.164L62.162 134.152Z" fill="#407BFF"/>
<path opacity="0.2" d="M55.1838 125.136L60.6927 124.206L60.7461 131.676L55.9183 132.245L55.1838 125.136Z" fill="black"/>
<path d="M23.2437 70.0404C23.2437 70.0404 61.4037 72.8482 61.925 83.9313C64.7506 102.046 62.6536 125.888 62.6536 125.888L53.5194 127.802C53.5194 127.802 48.7805 105.493 48.1052 89.0849C38.7695 90.6546 19.5592 93.575 12.9721 88.9072C6.98925 83.5404 8.64195 72.5283 8.64195 72.5283L23.2437 70.0404Z" fill="#407BFF"/>
<path opacity="0.4" d="M23.2437 70.0404C23.2437 70.0404 61.4037 72.8482 61.925 83.9313C64.7506 102.046 62.6536 125.888 62.6536 125.888L53.5194 127.802C53.5194 127.802 48.7805 105.493 48.1052 89.0849C38.7695 90.6546 19.5592 93.575 12.9721 88.9072C6.98925 83.5404 8.64195 72.5283 8.64195 72.5283L23.2437 70.0404Z" fill="black"/>
<path d="M52.6544 130.811L63.8205 129.857L64.0515 124.976L51.8073 126.256L52.6544 130.811Z" fill="#407BFF"/>
<path d="M25.9034 36.8681C26.1226 37.7389 26.318 38.4912 26.555 39.2849C26.7919 40.0787 27.0229 40.8251 27.2895 41.6188C27.7989 43.1531 28.3795 44.6754 29.0192 46.2215C30.293 49.4298 31.9989 52.4492 34.0898 55.1958C34.7015 55.9663 35.3794 56.6819 36.1157 57.3342C36.9394 58.071 37.8677 58.6818 38.8702 59.1469C40.7948 60.0051 42.9107 60.3442 45.0071 60.1302C46.8504 59.9424 48.651 59.4563 50.3384 58.6907C51.1318 58.3431 51.9033 57.9475 52.6486 57.506C53.0255 57.2893 53.3876 57.0479 53.7326 56.7833C54.0762 56.5168 54.4079 56.2858 54.8107 55.9777L52.8381 52.702L51.8548 52.9922L50.8241 53.2765C50.131 53.4543 49.4439 53.6083 48.739 53.7267C47.4679 53.9626 46.1714 54.0303 44.8827 53.9281C43.8528 53.856 42.8562 53.5326 41.9801 52.9863C41.6014 52.7356 41.2517 52.4436 40.9376 52.1155C40.5472 51.691 40.1869 51.2397 39.8594 50.7649C39.1013 49.6544 38.4356 48.4835 37.8691 47.2641C37.2768 46.0023 36.6844 44.6695 36.169 43.3012C35.6537 41.9328 35.162 40.5407 34.6822 39.1546L34.0069 37.0339C33.7937 36.335 33.5567 35.5886 33.4145 34.9844L25.9034 36.8681Z" fill="#FF8B7B"/>
<path d="M25.1511 32.597C28.2254 28.4149 33.142 29.7537 36.0861 36.1512C37.7207 39.5543 39.0412 43.0995 40.0312 46.7426L28.7763 51.1261C25.5539 45.09 21.9938 36.8857 25.1511 32.597Z" fill="#407BFF"/>
<path opacity="0.1" d="M25.1511 32.597C28.2254 28.4149 33.142 29.7537 36.0861 36.1512C37.7207 39.5543 39.0412 43.0995 40.0312 46.7426L28.7763 51.1261C25.5539 45.09 21.9938 36.8857 25.1511 32.597Z" fill="black"/>
<path opacity="0.3" d="M30.1447 39.2555C29.1851 38.6631 27.3784 42.4187 26.632 46.8259C27.3073 48.3305 28.03 49.7877 28.7468 51.1087L35.5352 48.4667C34.2735 44.409 32.3009 40.6298 30.1447 39.2555Z" fill="black"/>
<path d="M53.3476 50.9784L55.7999 49.5389L56.8543 55.0835C56.8543 55.0835 52.767 57.7313 51.5231 55.6758L51.606 54.2305C51.6556 53.5974 51.836 52.9816 52.1358 52.4218C52.4355 51.862 52.8482 51.3705 53.3476 50.9784Z" fill="#FF8B7B"/>
<path d="M58.9217 49.1598L61.2556 53.567L56.8307 55.0894L55.7763 49.5389L58.9217 49.1598Z" fill="#FF8B7B"/>
<path d="M24.9852 28.9544L19.0971 28.3206L11.8466 29.2032C10.7442 29.333 9.71528 29.8222 8.91871 30.5952C8.12214 31.3682 7.60228 32.3821 7.43943 33.48C6.78191 37.9109 6.54495 44.1426 6.49757 49.5508C6.43833 55.5989 7.39796 64.508 8.64193 72.5286L35.5174 68.003C33.3138 51.1858 33.77 40.9497 33.7877 35.3282C33.7932 34.225 33.437 33.1505 32.7737 32.269C32.1104 31.3874 31.1766 30.7475 30.1151 30.4471L24.9852 28.9544Z" fill="#407BFF"/>
<path opacity="0.3" d="M9.75562 31.4067C14.5775 30.3937 14.6959 41.4117 12.753 49.5389C12.1962 51.9084 9.40021 51.002 8.4465 50.4275C5.33067 48.5378 3.84976 35.1208 9.75562 31.4067Z" fill="black"/>
<path d="M10.6738 46.198C9.76152 50.8776 7.71195 52.9568 9.82668 55.0834C11.9414 57.21 25.4058 65.4794 25.9034 64.9581C24.9319 65.9118 24.0256 66.7352 23.0541 67.6593C18.9984 66.0441 14.923 64.4645 10.8278 62.9204C7.86595 61.8067 3.0619 59.8519 1.1071 57.3344C-0.669992 55.0597 0.923458 50.226 2.59985 44.723C4.83898 44.0714 10.6738 46.198 10.6738 46.198Z" fill="#FF8B7B"/>
<path d="M7.84221 29.5228C12.7825 27.8997 14.7966 31.8271 13.5052 38.7222C12.8663 42.4446 11.8888 46.1008 10.5849 49.6454L0.0585632 46.6836C0.935261 39.9247 2.76566 31.1873 7.84221 29.5228Z" fill="#407BFF"/>
<path d="M23.3444 37.111L23.5399 61.1431L27.2066 64.2827L29.4102 60.7699L24.8194 37.111H23.3444Z" fill="#263238"/>
<path d="M23.3561 37.1111H24.8193L25.5182 35.8138L24.5705 35.2866L23.5398 35.1978L22.4439 35.8138L23.3561 37.1111Z" fill="#263238"/>
<path d="M15.0335 29.2623C14.9387 30.3214 15.2429 31.3777 15.8865 32.2241C16.5261 33.0602 17.2685 33.8125 18.096 34.4633C19.1149 35.334 20.3174 36.2403 21.6502 36.0449C22.8645 35.8435 23.5517 35.2037 24.0196 33.7287C25.1214 35.3814 25.2044 36.2226 26.3535 36.2877C27.0999 36.3351 27.7337 35.7665 28.2432 35.2156C29.1317 34.2322 29.5286 33.6754 29.653 32.3544C29.8603 30.2101 28.0595 28.2849 26.0159 27.6155C23.939 26.994 21.7909 26.6416 19.6243 26.5671C17.6991 26.3893 15.3415 27.0528 15.0335 29.2623Z" fill="#263238"/>
<path d="M19.7961 18.8247L22.5328 21.7865L26.2528 25.8146C25.9355 26.2666 25.7027 26.7723 25.5657 27.3073C25.3395 27.8764 25.3265 28.508 25.5289 29.0859C25.7314 29.6638 26.1357 30.1492 26.6675 30.4528C27.2243 30.6897 27.5916 33.539 23.9841 33.3613C22.9556 33.376 21.935 33.1796 20.9855 32.7843C20.0359 32.3889 19.1775 31.8031 18.4632 31.0629C17.7702 30.1981 17.5865 29.7242 18.2322 28.7349C20.0922 25.939 20.1159 21.9702 19.7961 18.8247Z" fill="#FF8B7B"/>
<path opacity="0.2" d="M25.3585 24.8135L22.989 21.8932C22.9594 21.988 22.9357 22.0827 22.9061 22.1834C22.8126 22.6087 22.7512 23.0404 22.7224 23.4748C22.6336 24.9676 24.0908 26.8216 25.4769 27.6213L25.5717 27.3192C25.7172 26.8188 25.9262 26.339 26.1937 25.8916C26.2125 25.8689 26.2344 25.8489 26.2588 25.8324L25.3585 24.8135Z" fill="black"/>
<path d="M28.6282 17.9126C30.814 13.6653 30.3401 11.2603 32.443 8.9916C33.5685 8.49401 35.5411 10.5673 34.2201 14.1096C32.8991 17.6519 28.6282 17.9126 28.6282 17.9126Z" fill="#263238"/>
<path d="M19.8553 13.2091C19.6065 18.1376 19.2629 21.0106 21.4488 23.7295C24.7778 27.876 31.0747 26.1523 32.7688 21.36C34.3031 17.0536 34.4097 9.72011 29.807 7.33881C28.7808 6.81483 27.6389 6.55828 26.4871 6.59294C25.3354 6.6276 24.211 6.95234 23.2181 7.53708C22.2252 8.12183 21.3959 8.94767 20.8071 9.93812C20.2182 10.9286 19.8888 12.0516 19.8494 13.2032L19.8553 13.2091Z" fill="#FF8B7B"/>
<path d="M19.2748 17.5868L21.9464 19.1743L22.284 14.856L24.4698 13.6061L27.1355 9.60767C27.1355 9.60767 21.354 7.91943 19.6302 7.68841C19.0379 7.6114 16.9113 9.25225 16.5973 9.94531C16.1904 10.9167 16.0624 11.9824 16.2277 13.0225C16.393 14.0626 16.8451 15.0361 17.5333 15.8334C18.0528 16.4754 18.6363 17.0629 19.2748 17.5868Z" fill="#263238"/>
<path d="M17.4444 16.7575C17.5808 17.8513 18.1141 18.8568 18.9431 19.5831C20.0271 20.5072 21.277 19.4173 21.3777 18.0193C21.4666 16.7694 20.7854 14.9686 19.494 14.5954C18.2027 14.2222 17.2786 15.3951 17.4444 16.7575Z" fill="#FF8B7B"/>
<path d="M27.3251 15.9162C27.2659 16.319 27.4258 16.6922 27.6924 16.7396C27.9589 16.787 28.19 16.5026 28.2847 16.0998C28.3402 15.9408 28.3331 15.7666 28.2649 15.6126C28.1967 15.4586 28.0725 15.3363 27.9175 15.2705C27.645 15.2231 27.3903 15.5075 27.3251 15.9162Z" fill="#263238"/>
<path d="M31.8922 16.7632C31.8271 17.1779 31.9929 17.5451 32.2595 17.5925C32.5261 17.6399 32.7867 17.3556 32.8519 16.9528C32.917 16.55 32.7511 16.1768 32.4905 16.1294C32.2299 16.082 31.9574 16.3604 31.8922 16.7632Z" fill="#263238"/>
<path d="M30.3816 16.8224C30.5583 17.9717 30.8849 19.0929 31.3531 20.1574C31.0823 20.2654 30.7909 20.3119 30.4999 20.2935C30.2089 20.275 29.9257 20.1921 29.6707 20.0508L30.3816 16.8224Z" fill="#FF5652"/>
<path d="M28.9482 22.3376C28.4744 22.2681 28.0197 22.1025 27.6123 21.8509C27.2048 21.5993 26.8531 21.267 26.5787 20.8745C26.5626 20.8475 26.5573 20.8153 26.5639 20.7845C26.5705 20.7538 26.5885 20.7266 26.6143 20.7086C26.6283 20.7 26.6438 20.6942 26.66 20.6916C26.6763 20.689 26.6928 20.6897 26.7088 20.6935C26.7248 20.6974 26.7398 20.7044 26.7531 20.7141C26.7664 20.7238 26.7776 20.736 26.7861 20.7501C27.0887 21.1698 27.4838 21.5142 27.941 21.7566C28.3981 21.9991 28.9049 22.133 29.4221 22.1481C29.4541 22.148 29.4849 22.1603 29.508 22.1824C29.5312 22.2044 29.545 22.2346 29.5465 22.2665C29.5481 22.2823 29.5465 22.2982 29.5416 22.3132C29.5367 22.3283 29.5286 22.3421 29.518 22.3539C29.5074 22.3656 29.4944 22.375 29.4799 22.3814C29.4654 22.3878 29.4498 22.391 29.4339 22.3909C29.2709 22.3852 29.1086 22.3673 28.9482 22.3376Z" fill="#263238"/>
<path d="M26.6497 14.3168C26.6117 14.303 26.5772 14.2808 26.549 14.2517C26.5265 14.2291 26.5086 14.2023 26.4963 14.1729C26.4841 14.1434 26.4778 14.1118 26.4778 14.0799C26.4778 14.048 26.4841 14.0164 26.4963 13.9869C26.5086 13.9574 26.5265 13.9306 26.549 13.9081C26.822 13.6431 27.1566 13.4502 27.5226 13.3468C27.8887 13.2434 28.2748 13.2327 28.646 13.3157C28.6764 13.3233 28.7051 13.3369 28.7302 13.3556C28.7554 13.3744 28.7766 13.3979 28.7926 13.4249C28.8085 13.4519 28.819 13.4819 28.8233 13.5129C28.8277 13.544 28.8258 13.5756 28.8178 13.606C28.7987 13.6671 28.7562 13.7182 28.6996 13.7481C28.6431 13.7781 28.5769 13.7845 28.5157 13.7659C28.2242 13.7076 27.923 13.7202 27.6374 13.8027C27.3519 13.8852 27.0903 14.0351 26.8748 14.2398C26.8471 14.2709 26.8118 14.2943 26.7724 14.3078C26.7329 14.3213 26.6907 14.3244 26.6497 14.3168Z" fill="#263238"/>
<path d="M32.3245 14.1331C32.3156 14.0941 32.3156 14.0536 32.3245 14.0146C32.3322 13.9834 32.3459 13.954 32.3649 13.9282C32.384 13.9023 32.408 13.8805 32.4355 13.864C32.4631 13.8474 32.4936 13.8365 32.5254 13.8319C32.5572 13.8273 32.5896 13.829 32.6207 13.8369C32.993 13.9116 33.3408 14.078 33.6325 14.321C33.9242 14.5641 34.1506 14.8762 34.2912 15.229C34.3121 15.2895 34.3082 15.3558 34.2805 15.4135C34.2528 15.4711 34.2034 15.5155 34.1431 15.537C34.0825 15.5563 34.0169 15.5518 33.9596 15.5242C33.9023 15.4967 33.8578 15.4483 33.8351 15.3889C33.7188 15.115 33.5379 14.8733 33.3079 14.6845C33.0778 14.4957 32.8055 14.3655 32.5141 14.3049C32.4691 14.2981 32.4271 14.2782 32.3934 14.2476C32.3596 14.2171 32.3357 14.1772 32.3245 14.1331Z" fill="#263238"/>
<path d="M34.0246 72.3922L64.9045 68.3167C65.0577 68.2946 65.1961 68.2134 65.2902 68.0905C65.3843 67.9677 65.4266 67.8128 65.408 67.6592C65.3859 67.506 65.3047 67.3675 65.1818 67.2734C65.0589 67.1793 64.9041 67.1371 64.7505 67.1557L33.8706 71.2311C33.7185 71.2532 33.581 71.3336 33.4871 71.4551C33.3931 71.5767 33.3501 71.73 33.3671 71.8827C33.3877 72.037 33.4683 72.1769 33.5914 72.2723C33.7144 72.3676 33.87 72.4107 34.0246 72.3922Z" fill="#407BFF"/>
<path opacity="0.5" d="M34.0246 72.3922L64.9045 68.3167C65.0577 68.2946 65.1961 68.2134 65.2902 68.0905C65.3843 67.9677 65.4266 67.8128 65.408 67.6592C65.3859 67.506 65.3047 67.3675 65.1818 67.2734C65.0589 67.1793 64.9041 67.1371 64.7505 67.1557L33.8706 71.2311C33.7185 71.2532 33.581 71.3336 33.4871 71.4551C33.3931 71.5767 33.3501 71.73 33.3671 71.8827C33.3877 72.037 33.4683 72.1769 33.5914 72.2723C33.7144 72.3676 33.87 72.4107 34.0246 72.3922Z" fill="black"/>
<path d="M18.8009 72.232L33.7877 72.3978C33.9448 72.3978 34.0955 72.3354 34.2065 72.2243C34.3176 72.1132 34.38 71.9626 34.38 71.8055C34.38 71.6484 34.3176 71.4977 34.2065 71.3866C34.0955 71.2755 33.9448 71.2131 33.7877 71.2131L18.8009 71.0472C18.6438 71.0472 18.4931 71.1096 18.382 71.2207C18.2709 71.3318 18.2085 71.4825 18.2085 71.6396C18.2085 71.7967 18.2709 71.9474 18.382 72.0585C18.4931 72.1695 18.6438 72.232 18.8009 72.232Z" fill="#407BFF"/>
<path opacity="0.5" d="M18.8009 72.232L33.7877 72.3978C33.9448 72.3978 34.0955 72.3354 34.2065 72.2243C34.3176 72.1132 34.38 71.9626 34.38 71.8055C34.38 71.6484 34.3176 71.4977 34.2065 71.3866C34.0955 71.2755 33.9448 71.2131 33.7877 71.2131L18.8009 71.0472C18.6438 71.0472 18.4931 71.1096 18.382 71.2207C18.2709 71.3318 18.2085 71.4825 18.2085 71.6396C18.2085 71.7967 18.2709 71.9474 18.382 72.0585C18.4931 72.1695 18.6438 72.232 18.8009 72.232Z" fill="white"/>
<path d="M34.7176 71.7048L18.2203 71.5982C18.2203 71.5982 17.6694 71.2724 18.7771 71.0591C19.8848 70.8459 34.1786 68.9385 34.1786 68.9385L34.7176 71.7048Z" fill="#407BFF"/>
<path d="M34.7176 71.7048L18.6112 71.5508C18.6112 71.5508 18.0603 71.2191 19.1681 71.0058C20.2758 70.7926 34.2022 68.9503 34.2022 68.9503L34.7176 71.7048Z" fill="#407BFF"/>
<path opacity="0.2" d="M34.7176 71.7048L18.6112 71.5508C18.6112 71.5508 18.0603 71.2191 19.1681 71.0058C20.2758 70.7926 34.2022 68.9503 34.2022 68.9503L34.7176 71.7048Z" fill="white"/>
<path d="M34.7118 71.1183L63.5243 67.3213C64.0281 67.2475 64.4873 66.9915 64.8148 66.6017C65.1423 66.2119 65.3155 65.7155 65.3014 65.2066L64.6557 50.4567C64.654 50.2133 64.5994 49.9731 64.4957 49.7528C64.3921 49.5326 64.2418 49.3374 64.0554 49.1808C63.869 49.0243 63.6508 48.91 63.4159 48.846C63.1811 48.7819 62.9351 48.7697 62.695 48.8099L33.9062 52.6307C33.403 52.7057 32.9445 52.9621 32.6172 53.3516C32.2899 53.7411 32.1163 54.2368 32.1291 54.7454L32.7748 69.4953C32.7804 69.7344 32.837 69.9695 32.9407 70.185C33.0444 70.4005 33.1928 70.5914 33.3761 70.745C33.5594 70.8986 33.7734 71.0113 34.0037 71.0757C34.234 71.1401 34.4754 71.1546 34.7118 71.1183Z" fill="#407BFF"/>
<path opacity="0.4" d="M34.7118 71.1183L63.5243 67.3213C64.0281 67.2475 64.4873 66.9915 64.8148 66.6017C65.1423 66.2119 65.3155 65.7155 65.3014 65.2066L64.6557 50.4567C64.654 50.2133 64.5994 49.9731 64.4957 49.7528C64.3921 49.5326 64.2418 49.3374 64.0554 49.1808C63.869 49.0243 63.6508 48.91 63.4159 48.846C63.1811 48.7819 62.9351 48.7697 62.695 48.8099L33.9062 52.6307C33.403 52.7057 32.9445 52.9621 32.6172 53.3516C32.2899 53.7411 32.1163 54.2368 32.1291 54.7454L32.7748 69.4953C32.7804 69.7344 32.837 69.9695 32.9407 70.185C33.0444 70.4005 33.1928 70.5914 33.3761 70.745C33.5594 70.8986 33.7734 71.0113 34.0037 71.0757C34.234 71.1401 34.4754 71.1546 34.7118 71.1183Z" fill="black"/>
<path d="M35.5528 70.9409L64.3476 67.1735C64.8503 67.0998 65.3086 66.8446 65.636 66.4561C65.9634 66.0676 66.1373 65.5726 66.1247 65.0647L65.479 50.3148C65.4731 50.0762 65.4166 49.8414 65.3134 49.6262C65.2101 49.4109 65.0623 49.22 64.8798 49.066C64.6973 48.9121 64.4842 48.7986 64.2546 48.733C64.025 48.6675 63.7841 48.6514 63.5479 48.6858L34.7531 52.4829C34.2499 52.5579 33.7915 52.8143 33.4641 53.2038C33.1368 53.5933 32.9632 54.089 32.976 54.5976L33.6217 69.3475C33.6306 69.5838 33.6894 69.8155 33.7942 70.0274C33.8991 70.2394 34.0476 70.4267 34.2299 70.5772C34.4123 70.7277 34.6245 70.8379 34.8524 70.9006C35.0804 70.9633 35.3191 70.977 35.5528 70.9409Z" fill="#407BFF"/>
<path opacity="0.7" d="M35.5528 70.9409L64.3476 67.1735C64.8503 67.0998 65.3086 66.8446 65.636 66.4561C65.9634 66.0676 66.1373 65.5726 66.1247 65.0647L65.479 50.3148C65.4731 50.0762 65.4166 49.8414 65.3134 49.6262C65.2101 49.4109 65.0623 49.22 64.8798 49.066C64.6973 48.9121 64.4842 48.7986 64.2546 48.733C64.025 48.6675 63.7841 48.6514 63.5479 48.6858L34.7531 52.4829C34.2499 52.5579 33.7915 52.8143 33.4641 53.2038C33.1368 53.5933 32.9632 54.089 32.976 54.5976L33.6217 69.3475C33.6306 69.5838 33.6894 69.8155 33.7942 70.0274C33.8991 70.2394 34.0476 70.4267 34.2299 70.5772C34.4123 70.7277 34.6245 70.8379 34.8524 70.9006C35.0804 70.9633 35.3191 70.977 35.5528 70.9409Z" fill="white"/>
<path d="M52.305 60.693C52.2478 61.3784 51.9378 62.0181 51.4353 62.4877C50.9328 62.9574 50.2737 63.2234 49.586 63.2343C49.2599 63.2351 48.9371 63.1687 48.6378 63.039C48.3385 62.9093 48.0692 62.7192 47.8468 62.4807C47.6244 62.2421 47.4536 61.9602 47.3452 61.6526C47.2367 61.345 47.1929 61.0183 47.2166 60.693C47.2724 60.0066 47.5818 59.3655 48.0844 58.8946C48.587 58.4238 49.2469 58.1569 49.9355 58.1459C50.2622 58.145 50.5856 58.2116 50.8853 58.3416C51.185 58.4717 51.4546 58.6623 51.6771 58.9015C51.8996 59.1407 52.0702 59.4233 52.1783 59.7316C52.2864 60.0399 52.3295 60.3673 52.305 60.693Z" fill="#407BFF"/>
<path d="M27.6153 64.7089L30.0736 65.0169L27.5501 70.3008C27.5501 70.3008 22.3314 69.3649 22.9771 67.0547L24.0966 66.1424C25.0503 65.3487 26.2884 64.4897 27.6153 64.7089Z" fill="#FF8B7B"/>
<path d="M32.6918 67.9196L30.7429 70.6563L27.5441 70.2949L30.0735 65.017L32.6918 67.9196Z" fill="#FF8B7B"/>
<path d="M16.3426 9.4831C15.8651 8.69187 15.5096 7.83316 15.2882 6.93594C15.1847 6.48395 15.1843 6.01449 15.2868 5.5623C15.3893 5.11011 15.5922 4.68677 15.8805 4.32361C16.5535 3.6949 17.3995 3.28225 18.3092 3.13889L27.3665 0.840522C28.6163 0.520646 29.9432 0.206691 31.1694 0.597651C33.3256 1.28479 34.6762 2.2148 35.316 4.38285C35.7306 5.81637 35.6714 9.09214 34.6703 10.1999C33.9121 11.0469 32.6503 11.1713 31.5189 11.2187C26.5414 11.4104 21.5575 11.0748 16.6506 10.2176L16.3426 9.4831Z" fill="#407BFF"/>
<path d="M21.6383 10.8574C21.6027 11.1714 21.6797 10.5435 21.6383 10.8574C23.0659 8.92038 26.2469 7.30323 27.6626 7.0959C30.0143 6.75843 32.4046 7.356 34.3208 8.76044C35.262 9.46834 36.027 10.3841 36.5562 11.4362C37.0854 12.4884 37.3644 13.6485 37.3714 14.8262C37.3714 15.3771 37.1463 16.0761 36.5954 16.1235C36.0445 16.1709 35.8313 15.0928 35.5351 14.69C34.534 13.3394 32.4607 13.3927 30.9502 14.0976C30.1565 14.4827 29.3686 15.1817 28.5215 14.9447C27.941 14.8144 21.6383 10.8574 21.6383 10.8574Z" fill="#263238"/>
<path d="M14.3345 40.049H21.8634V42.0274L18.7298 43.6564L14.5477 42.4184L14.3345 40.049Z" fill="#263238"/>
<path d="M27.5915 40.049H33.9534V42.0274L31.3056 43.6564L27.7751 42.4184L27.5915 40.049Z" fill="#263238"/>
<path d="M53.5962 24.5233C53.3145 24.8163 52.9438 25.0079 52.5418 25.0682C52.1068 25.0834 51.6732 25.0116 51.2663 24.857C50.8594 24.7024 50.4875 24.4681 50.1723 24.1678C50.1234 24.3218 50.064 24.4722 49.9946 24.618L48.4545 23.1668L46.9144 21.7155C47.0557 21.6367 47.2022 21.5675 47.3527 21.5081C46.5471 20.6611 45.8777 19.3756 46.6715 18.2857L46.8077 18.1198C46.8265 18.0964 46.8513 18.0785 46.8795 18.0681C46.9077 18.0576 46.9381 18.055 46.9677 18.0606C47.0009 18.0655 47.0322 18.0794 47.0581 18.1008C47.084 18.1223 47.1036 18.1504 47.1146 18.1822C47.1256 18.214 47.1276 18.2482 47.1205 18.281C47.1134 18.3139 47.0974 18.3442 47.0743 18.3686C46.1798 19.3697 47.0151 20.6492 47.7851 21.3897C48.2384 21.2825 48.7135 21.3155 49.1476 21.4844C49.6985 20.744 49.8406 19.9265 49.1772 19.2986C48.9203 19.0565 48.6156 18.8709 48.2827 18.7536C48.2235 18.7536 48.2472 18.6411 48.2827 18.6648C48.7199 18.807 49.108 19.0699 49.4023 19.423C49.9295 20.0805 49.6925 20.8625 49.195 21.5378L49.266 21.5674C49.3136 21.4798 49.3826 21.4057 49.4664 21.3518C49.5503 21.298 49.6464 21.2662 49.7458 21.2593V21.8043L50.2908 21.7688C50.2884 21.868 50.2611 21.965 50.2114 22.0509C50.1617 22.1368 50.0913 22.2089 50.0065 22.2604L50.042 22.3256C50.6877 21.7984 51.4637 21.52 52.1568 22.0057C52.523 22.2822 52.8075 22.6527 52.9802 23.0779C52.9802 23.1371 52.9091 23.1608 52.8854 23.1075C52.7496 22.7832 52.5479 22.4907 52.293 22.2486C51.6296 21.6266 50.8121 21.8102 50.0953 22.3967C50.2835 22.8204 50.3432 23.29 50.2671 23.7473C50.9306 24.3396 51.9968 25.0031 52.8913 24.5943C53.0556 24.5172 53.2057 24.4131 53.3356 24.2863C53.5073 24.0849 53.7739 24.3396 53.5962 24.5233Z" fill="#263238"/>
<path d="M48.4368 23.1549L46.5057 21.3363C46.3284 21.435 46.1582 21.5458 45.9963 21.668C44.7641 21.5614 43.301 21.8517 42.9219 23.2141C42.8567 23.451 43.2181 23.5221 43.2891 23.2852C43.5676 22.2722 44.616 22.0057 45.5757 22.0234L45.4098 22.1834C44.0178 23.6465 43.8223 25.702 44.9715 26.7861C46.1206 27.8701 48.1821 27.562 49.5682 26.1048L49.7696 25.8738C49.8644 26.8571 49.6748 27.9708 48.6382 28.3203C48.4012 28.3973 48.496 28.7586 48.727 28.6816C50.1191 28.2136 50.2968 26.6676 50.0954 25.4295C50.1956 25.2823 50.2847 25.1279 50.362 24.9675L48.4368 23.1549Z" fill="#263238"/>
<path d="M57.6421 33.0294H55.0238L55.4385 30.4111H58.0567L57.6421 33.0294Z" fill="#263238"/>
<path d="M60.7344 32.6742C60.6849 32.9555 60.5457 33.2132 60.3375 33.4087C60.1 33.6467 59.7791 33.7827 59.443 33.7878H52.8618C52.6468 33.7866 52.4383 33.7136 52.2695 33.5805C52.1386 33.4727 52.0393 33.3316 51.982 33.1721C51.9246 33.0126 51.9114 32.8406 51.9437 32.6742C51.9437 32.6742 55.024 31.7205 55.3972 31.7205H57.7311L60.7344 32.6742Z" fill="#263238"/>
<path d="M61.4451 26.6199V26.7325C61.4148 26.8978 61.3279 27.0473 61.1992 27.1555C61.0705 27.2636 60.9082 27.3235 60.7402 27.3248H53.7681C53.681 27.3273 53.5944 27.3105 53.5146 27.2757C53.4347 27.2409 53.3635 27.1889 53.306 27.1234C53.2426 27.0552 53.1961 26.973 53.1704 26.8835C53.1446 26.7939 53.1404 26.6996 53.158 26.6081H54.9765C55.2252 26.079 55.6093 25.625 56.0899 25.2921C56.5705 24.9593 57.1305 24.7593 57.7132 24.7125C58.2367 24.725 58.739 24.9221 59.1314 25.2689C59.5237 25.6158 59.7809 26.0901 59.8576 26.6081L61.4451 26.6199Z" fill="#263238"/>
<path d="M54.6685 27.3369C54.5964 27.5511 54.5429 27.7711 54.5086 27.9944C54.3968 28.4978 54.4183 29.0215 54.571 29.514C54.7237 30.0064 55.0024 30.4505 55.3793 30.8022C55.7451 31.1061 56.207 31.2699 56.6825 31.2643C57.1407 31.2591 57.5889 31.1302 57.9798 30.8911C58.4896 30.5764 58.9245 30.1541 59.2539 29.6538C59.5834 29.1534 59.7995 28.5871 59.8872 27.9944C59.9219 27.777 59.9397 27.5571 59.9405 27.3369H54.6685ZM58.3115 28.4683L57.1268 27.9174L55.9421 28.4683L55.2312 27.6094L57.0913 27.8997L58.9513 27.6094L58.3115 28.4683Z" fill="#263238"/>
<path d="M46.79 18.108L46.6538 18.2738L46.95 18.0487C46.9204 18.0432 46.89 18.0458 46.8618 18.0562C46.8336 18.0667 46.8088 18.0845 46.79 18.108Z" fill="#407BFF"/>
<path d="M53.6435 13.997C50.253 14.05 47.0031 15.3616 44.5257 17.677C42.0483 19.9924 40.5202 23.1462 40.2384 26.5255C40.026 29.0163 40.6287 31.5086 41.9556 33.6272C43.2825 35.7458 45.2618 37.3759 47.5955 38.2721H47.6666C48.3864 38.54 49.1303 38.7384 49.888 38.8644C50.1249 38.9059 50.3618 38.9355 50.6047 38.9592C51.0253 39.0007 51.4518 39.0244 51.8842 39.0244C55.2722 38.975 58.521 37.6688 61.0002 35.3593C63.4794 33.0497 65.0123 29.9015 65.3012 26.5255C65.4387 24.9192 65.2382 23.302 64.7127 21.7779C64.1873 20.2538 63.3484 18.8567 62.2502 17.6765C61.152 16.4963 59.8188 15.5591 58.3365 14.9254C56.8541 14.2917 55.2555 13.9754 53.6435 13.997ZM42.1339 26.5255C42.2614 24.9088 42.7301 23.3375 43.5091 21.9151C44.2882 20.4928 45.3599 19.2518 46.6536 18.2739L46.7899 18.108C46.8087 18.0846 46.8335 18.0667 46.8617 18.0563C46.8898 18.0458 46.9203 18.0432 46.9498 18.0488C48.8542 16.6577 51.149 15.9031 53.5073 15.8926C55.1602 15.8926 56.7877 16.2994 58.2462 17.0773L52.8616 24.5707C53.0259 24.4936 53.1761 24.3895 53.3059 24.2627C53.4836 24.085 53.7502 24.3397 53.5725 24.5115C53.2907 24.8045 52.92 24.9961 52.5181 25.0564L45.5341 34.8363C44.3504 33.8187 43.4251 32.5348 42.834 31.09C42.2429 29.6453 42.003 28.081 42.1339 26.5255ZM63.3998 26.5255C63.1675 29.3991 61.8733 32.0833 59.7695 34.0546C57.6657 36.0258 54.9031 37.1429 52.0205 37.188C50.2867 37.1981 48.5802 36.7571 47.0683 35.9085L53.3059 27.1652C53.2424 27.097 53.1959 27.0148 53.1702 26.9253C53.1445 26.8357 53.1402 26.7414 53.1578 26.6499H53.6732L59.7863 18.0902C61.0268 19.0985 62.0037 20.393 62.6331 21.8623C63.2626 23.3317 63.5257 24.932 63.3998 26.5255Z" fill="#407BFF"/>
<path d="M46.79 18.108L46.6538 18.2738L46.95 18.0487C46.9204 18.0432 46.89 18.0458 46.8618 18.0562C46.8336 18.0667 46.8088 18.0845 46.79 18.108Z" fill="#407BFF"/>
<path opacity="0.3" d="M53.6435 13.997C50.253 14.05 47.0031 15.3616 44.5257 17.677C42.0483 19.9924 40.5202 23.1462 40.2384 26.5255C40.026 29.0163 40.6287 31.5086 41.9556 33.6272C43.2825 35.7458 45.2618 37.3759 47.5955 38.2721H47.6666C48.3864 38.54 49.1303 38.7384 49.888 38.8644C50.1249 38.9059 50.3618 38.9355 50.6047 38.9592C51.0253 39.0007 51.4518 39.0244 51.8842 39.0244C55.2722 38.975 58.521 37.6688 61.0002 35.3593C63.4794 33.0497 65.0123 29.9015 65.3012 26.5255C65.4387 24.9192 65.2382 23.302 64.7127 21.7779C64.1873 20.2538 63.3484 18.8567 62.2502 17.6765C61.152 16.4963 59.8188 15.5591 58.3365 14.9254C56.8541 14.2917 55.2555 13.9754 53.6435 13.997ZM42.1339 26.5255C42.2614 24.9088 42.7301 23.3375 43.5091 21.9151C44.2882 20.4928 45.3599 19.2518 46.6536 18.2739L46.7899 18.108C46.8087 18.0846 46.8335 18.0667 46.8617 18.0563C46.8898 18.0458 46.9203 18.0432 46.9498 18.0488C48.8542 16.6577 51.149 15.9031 53.5073 15.8926C55.1602 15.8926 56.7877 16.2994 58.2462 17.0773L52.8616 24.5707C53.0259 24.4936 53.1761 24.3895 53.3059 24.2627C53.4836 24.085 53.7502 24.3397 53.5725 24.5115C53.2907 24.8045 52.92 24.9961 52.5181 25.0564L45.5341 34.8363C44.3504 33.8187 43.4251 32.5348 42.834 31.09C42.2429 29.6453 42.003 28.081 42.1339 26.5255ZM63.3998 26.5255C63.1675 29.3991 61.8733 32.0833 59.7695 34.0546C57.6657 36.0258 54.9031 37.1429 52.0205 37.188C50.2867 37.1981 48.5802 36.7571 47.0683 35.9085L53.3059 27.1652C53.2424 27.097 53.1959 27.0148 53.1702 26.9253C53.1445 26.8357 53.1402 26.7414 53.1578 26.6499H53.6732L59.7863 18.0902C61.0268 19.0985 62.0037 20.393 62.6331 21.8623C63.2626 23.3317 63.5257 24.932 63.3998 26.5255Z" fill="white"/>
<path d="M50.8358 37.5553L47.2105 42.62L47.8029 36.8385C48.7775 37.2111 49.7975 37.4522 50.8358 37.5553Z" fill="#407BFF"/>
<path opacity="0.3" d="M50.8358 37.5553L47.2105 42.62L47.8029 36.8385C48.7775 37.2111 49.7975 37.4522 50.8358 37.5553Z" fill="white"/>
<path d="M57.7321 27.9057L57.702 27.9178L57.6718 27.9057L57.702 27.8997L57.7321 27.9057Z" fill="#F0F0F0"/>
</g>
<defs>
<clipPath id="clip0_127_12046">
<rect width="375" height="1065" fill="white" transform="translate(-153 -206)"/>
</clipPath>
</defs>
</svg>
