<svg xmlns="http://www.w3.org/2000/svg" xmlns:xlink="http://www.w3.org/1999/xlink" width="191.522" height="145.397" viewBox="0 0 191.522 145.397">
  <defs>
    <linearGradient id="linear-gradient" y1="0.5" x2="1" y2="0.5" gradientUnits="objectBoundingBox">
      <stop offset="0" stop-color="#73c600"/>
      <stop offset="0.833" stop-color="#8ce000"/>
    </linearGradient>
    <linearGradient id="linear-gradient-2" x1="0" y1="0.5" x2="1" y2="0.5" xlink:href="#linear-gradient"/>
    <linearGradient id="linear-gradient-3" x1="0" y1="0.5" x2="1" y2="0.5" xlink:href="#linear-gradient"/>
    <linearGradient id="linear-gradient-4" x1="-0.067" y1="0.963" x2="0.616" y2="0.245" gradientUnits="objectBoundingBox">
      <stop offset="0" stop-color="#41cd8c"/>
      <stop offset="0.833" stop-color="#64eaac"/>
    </linearGradient>
    <linearGradient id="linear-gradient-5" x1="0.418" y1="0.572" x2="0.987" y2="0.151" xlink:href="#linear-gradient-4"/>
    <linearGradient id="linear-gradient-6" x1="0" y1="0.5" x2="1" y2="0.5" xlink:href="#linear-gradient-4"/>
    <linearGradient id="linear-gradient-7" x1="0" y1="0.5" x2="1" y2="0.5" xlink:href="#linear-gradient-4"/>
    <linearGradient id="linear-gradient-8" x1="0" y1="0.5" x2="1" y2="0.5" xlink:href="#linear-gradient-4"/>
  </defs>
  <g id="Group_15025" data-name="Group 15025" transform="translate(-36.781 349.791)">
    <g id="Group_14987" data-name="Group 14987" transform="translate(36.781 -254.978)">
      <path id="Path_7762" data-name="Path 7762" d="M60.271-257.959c0,6.81-2.936,11.866-8.278,13.294a23.943,23.943,0,0,1-5.874.572H36.781v-24.754c0-1.917.938-2.937,2.854-2.977h7.993C56.438-271.825,60.271-266.809,60.271-257.959Zm-12.642-9.014H42.368v17.862h4.526c5.629,0,7.586-3.016,7.586-8.848C54.48-263.506,52.768-266.973,47.628-266.973Z" transform="translate(-36.781 271.825)" fill="#ee7b30"/>
      <path id="Path_7763" data-name="Path 7763" d="M77.727-255.814c0,7.423-3.3,11.173-9.828,11.173s-9.788-3.75-9.788-11.173c0-7.5,3.263-11.216,9.788-11.216S77.727-263.319,77.727-255.814Zm-14.11,0c.041,4.2,1.469,6.321,4.242,6.321s4.159-2.2,4.2-6.485c0-4.2-1.386-6.28-4.16-6.28C65.044-262.258,63.616-260.1,63.616-255.814Z" transform="translate(-32.172 272.861)" fill="#ee7b30"/>
      <path id="Path_7764" data-name="Path 7764" d="M86.288-244.641c-6.525,0-9.87-3.75-10.034-11.173,0-7.382,3.3-11.093,9.952-11.216,5.219,0,8.318,2.325,9.257,7.016H89.549a3.531,3.531,0,0,0-3.507-2.244c-2.854,0-4.282,2.162-4.282,6.444s1.509,6.443,4.527,6.4a4.232,4.232,0,0,0,3.262-1.548,2.5,2.5,0,0,1,1.835-.777h4.079C94.484-247.332,91.3-244.518,86.288-244.641Z" transform="translate(-28.252 272.861)" fill="#ee7b30"/>
      <path id="Path_7765" data-name="Path 7765" d="M100.393-261.792h-.57v11.948c0,.9.53,1.388,1.591,1.388h1.672v4.118a29.873,29.873,0,0,1-5.709-.04c-2.039-.2-3.018-1.468-2.977-3.874v-23.571h2.813a2.737,2.737,0,0,1,2.611,2.731v3.426h3.263v1.183A2.64,2.64,0,0,1,100.393-261.792Z" transform="translate(-24.331 271.825)" fill="#ee7b30"/>
      <path id="Path_7766" data-name="Path 7766" d="M122.9-255.814c0,7.423-3.3,11.173-9.83,11.173s-9.787-3.75-9.787-11.173c0-7.5,3.263-11.216,9.787-11.216S122.9-263.319,122.9-255.814Zm-14.111,0c.041,4.2,1.469,6.321,4.242,6.321s4.16-2.2,4.2-6.485c0-4.2-1.386-6.28-4.16-6.28C110.219-262.258,108.791-260.1,108.791-255.814Z" transform="translate(-22.411 272.861)" fill="#ee7b30"/>
      <path id="Path_7767" data-name="Path 7767" d="M121.563-256.322c.163-6.973,3.874-10.44,11.093-10.44h.775v5.628H131.6c-3.018,0-4.529,1.591-4.529,4.731v11.216h-5.505Z" transform="translate(-18.462 272.919)" fill="#ee7b30"/>
      <path id="Path_7768" data-name="Path 7768" d="M164.17-257.959c0,6.81-2.936,11.866-8.278,13.294a23.936,23.936,0,0,1-5.874.572H140.68v-24.754c0-1.917.938-2.937,2.855-2.977h7.993C160.335-271.825,164.17-266.809,164.17-257.959Zm-12.641-9.014h-5.262v17.862h4.527c5.627,0,7.585-3.016,7.585-8.848C158.379-263.506,156.665-266.973,151.529-266.973Z" transform="translate(-14.331 271.825)" fill="#41cd8c"/>
      <path id="Path_7769" data-name="Path 7769" d="M164.957-271.825a2.293,2.293,0,0,1,2.611,2.65v1.591h-5.424v-4.24Zm0,6.157a2.3,2.3,0,0,1,2.611,2.611v18.964h-5.424v-21.574Z" transform="translate(-9.693 271.825)" fill="#41cd8c"/>
      <path id="Path_7770" data-name="Path 7770" d="M178.773-244.641c-6.525-.2-9.787-4-9.787-11.338s3.3-11.012,9.87-11.052q10.275,0,9.664,12.642H174.573c.2,3.3,1.631,4.975,4.283,4.975a5,5,0,0,0,3.506-1.548,2.375,2.375,0,0,1,1.836-.777h4C187.011-247.169,184.075-244.641,178.773-244.641Zm-4.119-13.621h8.116c-.326-2.854-1.673-4.323-4-4.323S175.063-261.116,174.654-258.262Z" transform="translate(-8.215 272.861)" fill="#41cd8c"/>
      <path id="Path_7771" data-name="Path 7771" d="M193.124-261.792h-.57v11.948c0,.9.53,1.388,1.591,1.388h1.672v4.118a29.885,29.885,0,0,1-5.711-.04c-2.038-.2-3.016-1.468-2.976-3.874v-23.571h2.813a2.737,2.737,0,0,1,2.611,2.731v3.426h3.263v1.183A2.639,2.639,0,0,1,193.124-261.792Z" transform="translate(-4.294 271.825)" fill="#41cd8c"/>
    </g>
    <g id="Group_14988" data-name="Group 14988" transform="translate(75.304 -219.89)">
      <path id="Path_7772" data-name="Path 7772" d="M77.207-232.3v.853h-.074a2.946,2.946,0,0,1-2.691-1.475,2.947,2.947,0,0,1-2.706,1.475,3,3,0,0,1-2.425-1.082,3.941,3.941,0,0,1-.852-2.61,4.013,4.013,0,0,1,.845-2.632,2.968,2.968,0,0,1,2.418-1.09h3.292v3.705a3.635,3.635,0,0,0,.489,2.019,1.841,1.841,0,0,0,1.639.837Zm-3.343-5.708H71.736a1.848,1.848,0,0,0-1.647.837,3.626,3.626,0,0,0-.489,2.016,3.594,3.594,0,0,0,.5,2.019,1.847,1.847,0,0,0,1.632.837,1.84,1.84,0,0,0,1.638-.837,3.647,3.647,0,0,0,.49-2.019Zm-2.2-2.359a.7.7,0,0,1-.512.224.663.663,0,0,1-.489-.215.716.716,0,0,1-.208-.528.711.711,0,0,1,.223-.533.68.68,0,0,1,.5-.223.654.654,0,0,1,.5.223.729.729,0,0,1,.208.527A.7.7,0,0,1,71.669-240.368Zm1.951,0a.706.706,0,0,1-.512.224.671.671,0,0,1-.5-.215.715.715,0,0,1-.207-.528.715.715,0,0,1,.221-.533.7.7,0,0,1,.512-.223.647.647,0,0,1,.489.223.716.716,0,0,1,.215.527A.7.7,0,0,1,73.62-240.368Z" transform="translate(-68.459 243.258)" fill="#747c92"/>
      <path id="Path_7773" data-name="Path 7773" d="M80.359-238.861a2.99,2.99,0,0,1,2.418,1.081,3.936,3.936,0,0,1,.86,2.618,3.975,3.975,0,0,1-.852,2.624,2.969,2.969,0,0,1-2.416,1.09H75.525v-.853h1.558v-2.861a3.962,3.962,0,0,1,.845-2.618A2.992,2.992,0,0,1,80.359-238.861Zm0,6.561A1.83,1.83,0,0,0,82-233.137a3.593,3.593,0,0,0,.5-2.019,3.551,3.551,0,0,0-.511-2.016,1.838,1.838,0,0,0-1.625-.837,1.84,1.84,0,0,0-1.638.837,3.609,3.609,0,0,0-.5,2.016v2.855Zm-.815-7.844a.689.689,0,0,1-.5-.215.72.72,0,0,1-.207-.528.711.711,0,0,1,.223-.533.7.7,0,0,1,.511-.223.672.672,0,0,1,.5.223.734.734,0,0,1,.208.527.7.7,0,0,1-.224.525A.7.7,0,0,1,79.544-240.144Zm1.951,0a.671.671,0,0,1-.5-.215.716.716,0,0,1-.208-.528.711.711,0,0,1,.223-.533.7.7,0,0,1,.5-.223.654.654,0,0,1,.5.223.729.729,0,0,1,.208.527.7.7,0,0,1-.223.525A.7.7,0,0,1,81.495-240.144Z" transform="translate(-66.932 243.258)" fill="#747c92"/>
      <path id="Path_7774" data-name="Path 7774" d="M86.538-232.3v.852h-.067a3.011,3.011,0,0,1-2.431-1.09,3.95,3.95,0,0,1-.838-2.6v-5.695a.861.861,0,0,1,.178-.621.722.722,0,0,1,.534-.179,1.826,1.826,0,0,1,.666.119,9.262,9.262,0,0,0-.236,2.38v3.98q0,2.857,2.127,2.855Z" transform="translate(-65.273 243.259)" fill="#747c92"/>
      <path id="Path_7775" data-name="Path 7775" d="M99.548-238.574a1.755,1.755,0,0,1,.666.125,9.2,9.2,0,0,0-.237,2.38v1.209a3.992,3.992,0,0,1-.845,2.61,3.013,3.013,0,0,1-2.431,1.09,2.957,2.957,0,0,1-2.707-1.475,2.96,2.96,0,0,1-2.7,1.475h-.007a2.947,2.947,0,0,1-2.7-1.475,2.967,2.967,0,0,1-2.707,1.475h-.06v-.852h.06q2.129,0,2.135-2.84v-1.824a.87.87,0,0,1,.178-.623.711.711,0,0,1,.534-.185,1.78,1.78,0,0,1,.668.126,9.2,9.2,0,0,0-.237,2.38v.118q0,2.847,2.128,2.847t2.135-2.84v-1.824a.87.87,0,0,1,.178-.623.724.724,0,0,1,.534-.185,1.836,1.836,0,0,1,.675.126,8.937,8.937,0,0,0-.244,2.38v.118q0,2.847,2.135,2.847t2.127-2.855v-2.905a.831.831,0,0,1,.186-.615A.7.7,0,0,1,99.548-238.574Zm-5.894-1.507a.708.708,0,0,1-.5.215.682.682,0,0,1-.5-.207.719.719,0,0,1-.207-.528.711.711,0,0,1,.223-.533.7.7,0,0,1,.5-.223.657.657,0,0,1,.5.223.728.728,0,0,1,.207.527A.7.7,0,0,1,93.653-240.08Zm.978-1.616a.7.7,0,0,1-.511.224.671.671,0,0,1-.5-.215.721.721,0,0,1-.208-.528.708.708,0,0,1,.224-.533.7.7,0,0,1,.511-.223.651.651,0,0,1,.49.223.72.72,0,0,1,.215.527A.7.7,0,0,1,94.631-241.7Zm.972,1.616a.715.715,0,0,1-.512.215.673.673,0,0,1-.489-.207.7.7,0,0,1-.215-.528.711.711,0,0,1,.223-.533.705.705,0,0,1,.512-.223.654.654,0,0,1,.5.223.728.728,0,0,1,.208.527A.7.7,0,0,1,95.6-240.08Z" transform="translate(-64.707 242.971)" fill="#747c92"/>
      <path id="Path_7776" data-name="Path 7776" d="M103.193-231.942h-1.536a3.95,3.95,0,0,1-.844,2.6,2.987,2.987,0,0,1-2.425,1.09h-.237c-.46,0-.747-.136-.86-.406a.429.429,0,0,1-.03-.157.912.912,0,0,1,.319-.579,1.178,1.178,0,0,0,.786.289h.016q2.136,0,2.135-2.854v-6.591a.864.864,0,0,1,.178-.623.739.739,0,0,1,.534-.178,1.823,1.823,0,0,1,.675.125,8.849,8.849,0,0,0-.246,2.373v4.063h1.536Z" transform="translate(-62.236 243.752)" fill="#747c92"/>
      <path id="Path_7777" data-name="Path 7777" d="M104.912-241.636a1.835,1.835,0,0,1,.666.119,9.2,9.2,0,0,0-.237,2.38v3.989a4,4,0,0,1-.845,2.61,3,3,0,0,1-2.432,1.09H102v-.852h.06q2.136,0,2.135-2.855v-5.679a.86.86,0,0,1,.179-.621A.72.72,0,0,1,104.912-241.636Z" transform="translate(-61.211 243.259)" fill="#747c92"/>
      <path id="Path_7778" data-name="Path 7778" d="M107.633-241.515a8.936,8.936,0,0,0-.244,2.38v6.888a.845.845,0,0,1-.178.615.711.711,0,0,1-.534.185,1.767,1.767,0,0,1-.668-.125,9.205,9.205,0,0,0,.237-2.38v-6.882a.86.86,0,0,1,.179-.621.7.7,0,0,1,.534-.186A1.817,1.817,0,0,1,107.633-241.515Z" transform="translate(-60.345 243.258)" fill="#747c92"/>
      <path id="Path_7779" data-name="Path 7779" d="M119.34-232.794v.852h-1.527a3.974,3.974,0,0,1-.838,2.6,3,3,0,0,1-2.424,1.09h-1.276c-.46,0-.747-.136-.86-.406a.4.4,0,0,1-.029-.157.906.906,0,0,1,.319-.579,1.174,1.174,0,0,0,.786.289h1.052q2.121,0,2.128-2.832h-2.143a2.96,2.96,0,0,1-2.416-1.1,3.986,3.986,0,0,1-.845-2.624,3.947,3.947,0,0,1,.852-2.611,3,3,0,0,1,2.424-1.081,2.985,2.985,0,0,1,2.425,1.081,3.951,3.951,0,0,1,.845,2.611v2.869Zm-2.669-2.855a3.584,3.584,0,0,0-.5-2.016,1.834,1.834,0,0,0-1.632-.837,1.845,1.845,0,0,0-1.631.837,3.59,3.59,0,0,0-.5,2.016,3.635,3.635,0,0,0,.489,2.019,1.847,1.847,0,0,0,1.645.837h2.128Z" transform="translate(-59.209 243.752)" fill="#747c92"/>
      <path id="Path_7780" data-name="Path 7780" d="M126.217-232.794v.852h-8.556v-.852H123.6a9.925,9.925,0,0,1-.185-2.112v-1.306a3.019,3.019,0,0,0-.387-1.794,2.033,2.033,0,0,0-1.623-.5,2.679,2.679,0,0,0-1.186.192,1.284,1.284,0,0,0-.713.876q-.755-.135-.755-.608a1.016,1.016,0,0,1,.741-.95,5.182,5.182,0,0,1,2.025-.362,3.9,3.9,0,0,1,2.328.541,2.3,2.3,0,0,1,.713,1.942v2.038a11.533,11.533,0,0,0,.133,2.039Z" transform="translate(-57.828 243.752)" fill="#747c92"/>
      <path id="Path_7781" data-name="Path 7781" d="M127.487-238.861a1.767,1.767,0,0,1,.668.125,9.19,9.19,0,0,0-.238,2.38v1.209a4,4,0,0,1-.844,2.61,3,3,0,0,1-2.432,1.09h-.06v-.853h.06q2.134-.007,2.135-2.855v-2.905a.843.843,0,0,1,.178-.615A.7.7,0,0,1,127.487-238.861Zm.429-1.507a.706.706,0,0,1-.5.215.682.682,0,0,1-.5-.207.72.72,0,0,1-.207-.528.733.733,0,0,1,.223-.54.7.7,0,0,1,.5-.215.667.667,0,0,1,.5.215.757.757,0,0,1,.208.534A.7.7,0,0,1,127.917-240.368Z" transform="translate(-56.332 243.258)" fill="#747c92"/>
      <path id="Path_7782" data-name="Path 7782" d="M140.6-233.441v.852h-.852a4.628,4.628,0,0,1-1.408,2.64,4.159,4.159,0,0,1-2.892,1.045,3.966,3.966,0,0,1-3.225-1.453,5.271,5.271,0,0,1-1.135-3.491v-1.713a.89.89,0,0,1,.178-.623.727.727,0,0,1,.534-.178,1.79,1.79,0,0,1,.668.125,9.208,9.208,0,0,0-.238,2.38v.008q0,4.091,3.234,4.092a2.912,2.912,0,0,0,3.144-2.832h-1.283c-.46,0-.745-.133-.86-.4a.4.4,0,0,1-.03-.156.88.88,0,0,1,.32-.578,1.152,1.152,0,0,0,.764.281Z" transform="translate(-54.927 244.399)" fill="#747c92"/>
      <path id="Path_7783" data-name="Path 7783" d="M148.49-232.3v.853H138.9v-.853h1.692v-2.861a3.956,3.956,0,0,1,.845-2.618,2.99,2.99,0,0,1,2.431-1.081,2.983,2.983,0,0,1,2.419,1.081,3.943,3.943,0,0,1,.86,2.618,3.8,3.8,0,0,1-1.091,2.861Zm-4.62,0a1.83,1.83,0,0,0,1.639-.837,3.593,3.593,0,0,0,.5-2.019,3.541,3.541,0,0,0-.511-2.016,1.84,1.84,0,0,0-1.625-.837,1.838,1.838,0,0,0-1.637.837,3.6,3.6,0,0,0-.5,2.016v2.855Zm-.9-7.844a.671.671,0,0,1-.5-.215.72.72,0,0,1-.207-.528.712.712,0,0,1,.223-.533.7.7,0,0,1,.512-.223.648.648,0,0,1,.489.223.733.733,0,0,1,.207.527.7.7,0,0,1-.223.525A.7.7,0,0,1,142.966-240.144Zm1.942,0a.667.667,0,0,1-.49-.215.707.707,0,0,1-.214-.528.711.711,0,0,1,.223-.533.719.719,0,0,1,.511-.223.657.657,0,0,1,.5.223.728.728,0,0,1,.207.527.7.7,0,0,1-.221.525A.7.7,0,0,1,144.908-240.144Z" transform="translate(-53.238 243.258)" fill="#747c92"/>
      <path id="Path_7784" data-name="Path 7784" d="M152.2-232.3v.852h-.067a2.951,2.951,0,0,1-2.7-1.475,2.964,2.964,0,0,1-2.706,1.475h-.06v-.852h.06q2.129,0,2.135-2.84v-5.695a.866.866,0,0,1,.178-.621.725.725,0,0,1,.535-.179,1.842,1.842,0,0,1,.668.119,9.136,9.136,0,0,0-.238,2.38v3.989q0,2.847,2.128,2.847Z" transform="translate(-51.561 243.259)" fill="#747c92"/>
      <path id="Path_7785" data-name="Path 7785" d="M163.108-232.3v.852h-1.5a3.23,3.23,0,0,1-1.6-.393,3.239,3.239,0,0,1-1.586.393h-7.467v-.852h1.721v-8.534a.866.866,0,0,1,.178-.621.738.738,0,0,1,.534-.179,1.9,1.9,0,0,1,.675.119,8.887,8.887,0,0,0-.244,2.38v3.048q2.3-2.775,4.589-2.773a2.99,2.99,0,0,1,2.431,1.081,3.956,3.956,0,0,1,.845,2.618,3.835,3.835,0,0,1-1.052,2.861Zm-4.686,0q2.12-.007,2.121-2.855a3.608,3.608,0,0,0-.5-2.016,1.828,1.828,0,0,0-1.638-.837,3.334,3.334,0,0,0-1.409.384,8.5,8.5,0,0,0-3.18,2.959v2.365Z" transform="translate(-50.633 243.259)" fill="#747c92"/>
      <path id="Path_7786" data-name="Path 7786" d="M163.666-238.861a1.767,1.767,0,0,1,.668.125,9.146,9.146,0,0,0-.237,2.38v1.209a4,4,0,0,1-.845,2.61,3,3,0,0,1-2.432,1.09h-.06v-.853h.06q2.134-.007,2.134-2.855v-2.905a.838.838,0,0,1,.179-.615A.707.707,0,0,1,163.666-238.861Zm.43-1.507a.708.708,0,0,1-.5.215.679.679,0,0,1-.5-.207.711.711,0,0,1-.208-.528.737.737,0,0,1,.221-.54.709.709,0,0,1,.5-.215.667.667,0,0,1,.5.215.752.752,0,0,1,.208.534A.7.7,0,0,1,164.1-240.368Z" transform="translate(-48.515 243.258)" fill="#747c92"/>
      <path id="Path_7787" data-name="Path 7787" d="M166.389-241.515a8.927,8.927,0,0,0-.246,2.38v6.888a.845.845,0,0,1-.176.615.712.712,0,0,1-.535.185,1.761,1.761,0,0,1-.666-.125,9.206,9.206,0,0,0,.237-2.38v-6.882a.866.866,0,0,1,.178-.621.707.707,0,0,1,.534-.186A1.824,1.824,0,0,1,166.389-241.515Z" transform="translate(-47.649 243.258)" fill="#747c92"/>
    </g>
    <g id="Group_14989" data-name="Group 14989" transform="translate(90.456 -349.791)">
      <path id="Path_7788" data-name="Path 7788" d="M116.054-309.542a2.967,2.967,0,0,1,2.967,2.967,2.967,2.967,0,0,1-2.967,2.967,2.967,2.967,0,0,1-2.967-2.967,2.967,2.967,0,0,1,2.967-2.967" transform="translate(-73.968 358.488)" fill-rule="evenodd" fill="url(#linear-gradient)"/>
      <path id="Path_7789" data-name="Path 7789" d="M107.673-309.542a2.968,2.968,0,0,1,2.968,2.967,2.968,2.968,0,0,1-2.968,2.967,2.968,2.968,0,0,1-2.967-2.967,2.968,2.968,0,0,1,2.967-2.967" transform="translate(-75.779 358.488)" fill-rule="evenodd" fill="url(#linear-gradient-2)"/>
      <path id="Path_7790" data-name="Path 7790" d="M124.435-309.542a2.968,2.968,0,0,1,2.967,2.967,2.968,2.968,0,0,1-2.967,2.967,2.969,2.969,0,0,1-2.968-2.967,2.969,2.969,0,0,1,2.968-2.967" transform="translate(-72.158 358.488)" fill-rule="evenodd" fill="url(#linear-gradient-3)"/>
      <path id="Path_7791" data-name="Path 7791" d="M96.907-298.881a25.98,25.98,0,0,1,5.424-15.926c.017-.023.034-.046.052-.069a50.371,50.371,0,0,1,13.042-11.87,79.993,79.993,0,0,1,18.19-8.477q-4.382.024-9.264.477a16.776,16.776,0,0,1,1.26-7.577,5.352,5.352,0,0,1,2.8-2.712,1.074,1.074,0,0,0,.651-1.24l-.12-.533a1.047,1.047,0,0,0-.542-.716,1.055,1.055,0,0,0-.9-.058,7.874,7.874,0,0,0-4.313,4.054,19.269,19.269,0,0,0-1.536,8.781,82.91,82.91,0,0,0-21.013.377,2.351,2.351,0,0,0-.489.136q-22.674,9.013-18.618,32.9,3.995,21.537,18.481,30.659l1.7-7.519.973-4.318a26.041,26.041,0,0,1-4.278-7.641,26.037,26.037,0,0,1-1.5-8.729" transform="translate(-80.919 350.252)" fill-rule="evenodd" fill="url(#linear-gradient-4)"/>
      <path id="Path_7792" data-name="Path 7792" d="M137.917-319.6a26.017,26.017,0,0,1,7.646,18.454,26.016,26.016,0,0,1-7.646,18.453,26.014,26.014,0,0,1-18.453,7.645,26.238,26.238,0,0,1-4.529-.393,25.971,25.971,0,0,1-4.3-1.142l-6.179,1.924L97.3-272.43c.383-.119,2.419,1.319,2.863,1.533q1.771.856,3.62,1.532a31.791,31.791,0,0,0,7.107,1.96c9.209,1.059,19.034.664,27.51-3.322a36.879,36.879,0,0,0,15.652-14.01,54.518,54.518,0,0,0,6.878-18.86q4.068-23.958-18.751-32.954a1.075,1.075,0,0,0-.216-.06q-2.123-.359-4.418-.57-7.258-.047-25.811,11.1a26.059,26.059,0,0,1,7.726-1.164,26.016,26.016,0,0,1,18.453,7.644" transform="translate(-77.378 352.516)" fill-rule="evenodd" fill="url(#linear-gradient-5)"/>
      <path id="Path_7793" data-name="Path 7793" d="M110.642-306.575a2.968,2.968,0,0,0-2.968-2.967,2.968,2.968,0,0,0-2.967,2.967,2.968,2.968,0,0,0,2.967,2.967,2.968,2.968,0,0,0,2.968-2.967" transform="translate(-75.779 358.488)" fill-rule="evenodd" fill="url(#linear-gradient-6)"/>
      <path id="Path_7794" data-name="Path 7794" d="M116.054-309.542a2.967,2.967,0,0,0-2.967,2.967,2.967,2.967,0,0,0,2.967,2.967,2.967,2.967,0,0,0,2.967-2.967,2.967,2.967,0,0,0-2.967-2.967" transform="translate(-73.968 358.488)" fill-rule="evenodd" fill="url(#linear-gradient-7)"/>
      <path id="Path_7795" data-name="Path 7795" d="M124.435-309.542a2.969,2.969,0,0,0-2.968,2.967,2.969,2.969,0,0,0,2.968,2.967,2.968,2.968,0,0,0,2.967-2.967,2.968,2.968,0,0,0-2.967-2.967" transform="translate(-72.158 358.488)" fill-rule="evenodd" fill="url(#linear-gradient-8)"/>
      <path id="Path_7796" data-name="Path 7796" d="M117.2-337.689q-16.019,2.612-22.995-11.593,17.294-2.993,22.995,11.593" transform="translate(-78.049 349.791)" fill-rule="evenodd" fill="url(#linear-gradient-8)"/>
    </g>
  </g>
</svg>
